/* XPM */
static char * C:\xpm\pixmaps\warning_nt_xpm[] = {
"39 38 5 1",
" 	s none	m none	g4 none	g none	c none",
".	c #999999990000",
"X	c #FFFFFFFF0000",
"o	c #000000000000",
"O	c #999999999999",
"                                       ",
"                                       ",
"                                       ",
"                                       ",
"                 ...                   ",
"                .XX o                  ",
"               .XXXX oO                ",
"               .XXXXXoOO               ",
"              .XXXXXX oOO              ",
"              .XXXXXXXoOO              ",
"             .XXXXXXXX oOO             ",
"             .XXXXXXXXXoOO             ",
"            .XXXXXXXXXX oOO            ",
"            .XXX ooo XXXoOO            ",
"           .XXXXoooooXXX oOO           ",
"           .XXXXoooooXXXXoOO           ",
"          .XXXXXoooooXXXX oOO          ",
"          .XXXXXoooooXXXXXoOO          ",
"         .XXXXXXoooooXXXXX oOO         ",
"         .XXXXXX.ooo.XXXXXXoOO         ",
"        .XXXXXXX ooo XXXXXX oOO        ",
"        .XXXXXXXXoooXXXXXXXXoOO        ",
"       .XXXXXXXXX.o.XXXXXXXX oOO       ",
"       .XXXXXXXXX o XXXXXXXXXoOO       ",
"      .XXXXXXXXXXXoXXXXXXXXXX oOO      ",
"      .XXXXXXXXXXXXXXXXXXXXXXXoOO      ",
"     .XXXXXXXXXXX oo XXXXXXXXX oOO     ",
"     .XXXXXXXXXXXooooXXXXXXXXXXoOO     ",
"    .XXXXXXXXXXXXooooXXXXXXXXXX oOO    ",
"    .XXXXXXXXXXXX oo XXXXXXXXXXXoOO    ",
"    .XXXXXXXXXXXXXXXXXXXXXXXXXXXoOOO   ",
"    .XXXXXXXXXXXXXXXXXXXXXXXXXX oOOO   ",
"     .XXXXXXXXXXXXXXXXXXXXXXXX oOOOO   ",
"      .ooooooooooooooooooooooooOOOOO   ",
"        OOOOOOOOOOOOOOOOOOOOOOOOOOO    ",
"         OOOOOOOOOOOOOOOOOOOOOOOOO     ",
"                                       ",
"                                       "};
